<svg width="242" height="242" viewBox="0 0 242 242" fill="none" xmlns="http://www.w3.org/2000/svg">
<path d="M171 88.9452C171 116.529 148.614 176.349 121 176.349C93.3857 176.349 71 116.529 71 88.9452C71 61.3612 93.3858 39 121 39C148.614 39 171 61.3612 171 88.9452Z" fill="#0D7700"/>
<ellipse cx="120.384" cy="198.375" rx="34.4037" ry="4.12844" fill="#0D7700"/>
<circle cx="121" cy="121" r="121" fill="#BEDFBA"/>
<path d="M171 88.9452C171 116.529 148.614 176.349 121 176.349C93.3857 176.349 71 116.529 71 88.9452C71 61.3612 93.3858 39 121 39C148.614 39 171 61.3612 171 88.9452Z" fill="#0D7700"/>
<ellipse cx="120.384" cy="198.375" rx="34.4037" ry="4.12844" fill="#0D7700"/>
<circle cx="120.025" cy="97.5579" r="19.0654" fill="#BEDFBA"/>
</svg>
